<?xml version="1.0" encoding="UTF-8" standalone="no"?>
<!-- Generator: Adobe Illustrator 22.0.0, SVG Export Plug-In . SVG Version: 6.00 Build 0)  -->

<svg
   version="1.1"
   id="Layer_1"
   x="0px"
   y="0px"
   viewBox="0 0 103.2 118"
   xml:space="preserve"
   sodipodi:docname="icon_bash.svg"
   width="103.2"
   height="118"
   inkscape:version="1.2.1 (9c6d41e410, 2022-07-14)"
   xmlns:inkscape="http://www.inkscape.org/namespaces/inkscape"
   xmlns:sodipodi="http://sodipodi.sourceforge.net/DTD/sodipodi-0.dtd"
   xmlns="http://www.w3.org/2000/svg"
   xmlns:svg="http://www.w3.org/2000/svg"><defs
   id="defs95045" /><sodipodi:namedview
   id="namedview95043"
   pagecolor="#505050"
   bordercolor="#eeeeee"
   borderopacity="1"
   inkscape:pageshadow="0"
   inkscape:pageopacity="0"
   inkscape:pagecheckerboard="0"
   showgrid="false"
   fit-margin-top="0"
   fit-margin-left="0"
   fit-margin-right="0"
   fit-margin-bottom="0"
   inkscape:zoom="6.778797"
   inkscape:cx="80.545265"
   inkscape:cy="76.414738"
   inkscape:window-width="1920"
   inkscape:window-height="1011"
   inkscape:window-x="0"
   inkscape:window-y="32"
   inkscape:window-maximized="1"
   inkscape:current-layer="Layer_1"
   inkscape:showpageshadow="0"
   inkscape:deskcolor="#505050" />
<style
   type="text/css"
   id="style95022">
	.st0{fill:#FFFFFF;}
	.st1{fill:#4DA925;}
	.st2{fill:#2A3238;}
</style>
<g
   id="g95040"
   transform="translate(-22.9,-16.2)">
	<g
   id="g95038">
		<g
   id="g95028">
			<g
   id="g95026">
				<path
   class="st0"
   d="M 118.9,40.3 81.7,18.2 c -2.2,-1.3 -4.7,-2 -7.2,-2 -2.5,0 -5,0.7 -7.2,2 L 30.1,40.3 c -4.4,2.6 -7.2,7.5 -7.2,12.8 v 44.2 c 0,5.3 2.7,10.1 7.2,12.8 l 37.2,22.1 c 2.2,1.3 4.7,2 7.2,2 2.5,0 5,-0.7 7.2,-2 l 37.2,-22.1 c 4.4,-2.6 7.2,-7.5 7.2,-12.8 V 53 c 0,-5.2 -2.7,-10.1 -7.2,-12.7 z M 68.6,129.8 31.4,107.7 c -3.6,-2.2 -5.9,-6.2 -5.9,-10.5 V 53 c 0,-4.3 2.3,-8.4 5.9,-10.5 L 68.6,20.4 c 1.8,-1.1 3.8,-1.6 5.9,-1.6 2.1,0 4.1,0.6 5.9,1.6 l 37.2,22.1 c 3.1,1.8 5.1,5 5.7,8.5 -1.2,-2.6 -4,-3.4 -7.3,-1.5 L 80.9,71.3 c -4.4,2.6 -7.6,5.4 -7.6,10.7 v 43.4 c 0,3.2 1.3,5.2 3.2,5.8 -0.6,0.1 -1.3,0.2 -2,0.2 -2,0.1 -4.1,-0.5 -5.9,-1.6 z"
   id="path95024" />
			</g>
		</g>
		<g
   id="g95032">
			<path
   class="st1"
   d="m 109.2,101.5 -9.3,5.5 c -0.2,0.1 -0.4,0.3 -0.4,0.6 v 2.4 c 0,0.3 0.2,0.4 0.4,0.3 l 9.4,-5.7 c 0.2,-0.1 0.3,-0.4 0.3,-0.7 v -2.1 c 0,-0.3 -0.2,-0.4 -0.4,-0.3 z"
   id="path95030" />
		</g>
		<g
   id="g95036">
			<path
   class="st2"
   d="m 89.4,81.1 c 0.3,-0.2 0.5,0 0.6,0.4 v 3.2 c 1.3,-0.5 2.5,-0.7 3.6,-0.4 0.2,0.1 0.3,0.4 0.2,0.7 l -0.7,2.8 c -0.1,0.2 -0.2,0.4 -0.3,0.6 -0.1,0.1 -0.1,0.1 -0.2,0.1 -0.1,0 -0.2,0.1 -0.3,0 -0.5,-0.1 -1.6,-0.4 -3.4,0.6 -1.9,1 -2.6,2.6 -2.5,3.8 0,1.5 0.8,1.9 3.3,1.9 3.4,0.1 4.9,1.6 5,5 0,3.4 -1.8,7.1 -4.6,9.3 l 0.1,3.2 c 0,0.4 -0.2,0.8 -0.5,1 l -1.9,1.1 c -0.3,0.2 -0.5,0 -0.6,-0.4 v -3.1 c -1.6,0.7 -3.2,0.8 -4.3,0.4 -0.2,-0.1 -0.3,-0.4 -0.2,-0.7 l 0.7,-2.9 c 0.1,-0.2 0.2,-0.5 0.3,-0.6 0.1,-0.1 0.1,-0.1 0.2,-0.1 0.1,-0.1 0.2,-0.1 0.3,0 1.1,0.4 2.6,0.2 3.9,-0.5 1.8,-0.9 2.9,-2.7 2.9,-4.5 0,-1.6 -0.9,-2.3 -3,-2.3 -2.7,0 -5.2,-0.5 -5.3,-4.5 0,-3.3 1.7,-6.7 4.4,-8.8 v -3.2 c 0,-0.4 0.2,-0.8 0.5,-1 z"
   id="path95034" />
		</g>
	</g>
</g>
<path
   style="fill:#4eaa25;fill-opacity:1;stroke:#4eaa25;stroke-width:1.162;stroke-linecap:butt;stroke-linejoin:miter;stroke-miterlimit:4;stroke-dasharray:none;stroke-opacity:1;paint-order:fill markers stroke"
   d="m 49.36733,114.9191 c -0.558329,-0.1068 -1.591014,-0.46068 -2.294854,-0.78639 C 45.135021,113.23611 8.4080501,91.336366 7.1024382,90.299172 5.6185099,89.120322 3.9771288,86.685799 3.3280737,84.700974 L 2.8164117,83.1363 V 58.831711 c 0,-23.285358 0.016528,-24.352709 0.3941266,-25.452017 0.7688201,-2.238277 1.6151951,-3.620685 3.12936,-5.111266 C 7.6979397,26.931538 9.4682554,25.832545 27.278184,15.270159 37.978333,8.9243088 47.272492,3.5419826 47.93187,3.3094333 50.290898,2.4774508 53.119141,2.5589743 55.72534,3.5340785 56.347031,3.7666828 65.538296,9.1079067 76.150375,15.403465 97.872179,28.289808 97.764031,27.836362 99.062061,31.265466 100.4,34.8 100.4,34.8 99.033351,32.947379 98.163034,31.767583 96.302559,31.93447 94.714883,32.473225 93.533144,32.874229 57.05058,55.392027 54.837402,57.086435 c -2.356169,1.803882 -3.736112,3.840734 -4.25225,6.276488 -0.465707,2.197767 -0.451444,46.354147 0.01556,48.154437 0.367692,1.41747 1.075418,2.69505 1.890263,3.02863 C 53.6,115 53.6,115 52.641175,114.98047 c -0.554675,-0.0113 -2.039057,0.17482 -3.27384,-0.0614 z"
   id="path95191"
   sodipodi:nodetypes="cssscssssssssssssssscc" /></svg>
